<svg width="150" height="149" viewBox="0 0 150 149" fill="none" xmlns="http://www.w3.org/2000/svg">
<path d="M14 40H30V45H14V40Z" fill="#06205C"/>
<path d="M14 47H19V52H14V47Z" fill="#06205C"/>
<path d="M125.41 73.49L84.4804 85.61L69.7804 69.05H39.3704V64.34H29.6204V58.25H2.94043V62.42H25.4604V108.84H2.94043V113H29.5804V106.88H39.3404V104.4H50.7204L78.2604 120L132.05 89C134.002 87.8777 135.428 86.0271 136.017 83.8543C136.606 81.6815 136.308 79.3639 135.19 77.41C134.239 75.7519 132.756 74.4632 130.981 73.7519C129.206 73.0406 127.244 72.9483 125.41 73.49V73.49ZM35.2504 102.77H29.5804V68.46H35.2504V102.77ZM130 85.42L78.2404 115.23L51.7804 100.28H39.3704V73.17H67.8904L83.1704 90.32C83.5869 90.7201 83.9179 91.2005 84.1434 91.7321C84.369 92.2638 84.4843 92.8357 84.4824 93.4132C84.4806 93.9907 84.3616 94.5618 84.1327 95.092C83.9038 95.6222 83.5697 96.1005 83.1506 96.4979C82.7316 96.8952 82.2363 97.2035 81.6947 97.404C81.1531 97.6044 80.5765 97.693 79.9997 97.6642C79.4229 97.6354 78.8579 97.4899 78.339 97.2365C77.82 96.9831 77.3578 96.6271 76.9804 96.19L66.5204 85.74L63.6104 88.65L74.0704 99.11C75.6336 100.686 77.7582 101.578 79.978 101.589C82.1978 101.6 84.3314 100.73 85.9104 99.17C87.2219 97.8743 88.0683 96.1813 88.3179 94.3547C88.5675 92.528 88.2063 90.6701 87.2904 89.07L126.62 77.44C127.68 76.9896 128.875 76.9777 129.944 77.4069C131.012 77.8362 131.867 78.6716 132.32 79.73C132.545 80.2546 132.664 80.8182 132.67 81.3887C132.676 81.9593 132.57 82.5254 132.357 83.0548C132.145 83.5843 131.83 84.0665 131.43 84.4741C131.031 84.8817 130.555 85.2065 130.03 85.43L130 85.42Z" fill="#06205C"/>
<path d="M14 100H21V105H14V100Z" fill="#06205C"/>
<path d="M72 12L72 17L67 17L67 12L72 12Z" fill="#06205C"/>
<path d="M67 7L67 12L62 12L62 7L67 7Z" fill="#06205C"/>
<path d="M67 17L67 22L62 22L62 17L67 17Z" fill="#06205C"/>
<path d="M62 12L62 17L57 17L57 12L62 12Z" fill="#06205C"/>
<path d="M122 5L122 10L117 10L117 5L122 5Z" fill="#06205C"/>
<path d="M117 0L117 5L112 5L112 -2.18557e-07L117 0Z" fill="#06205C"/>
<path d="M117 10L117 15L112 15L112 10L117 10Z" fill="#06205C"/>
<path d="M112 5L112 10L107 10L107 5L112 5Z" fill="#06205C"/>
<path d="M129 19L129 24L124 24L124 19L129 19Z" fill="#06205C"/>
<path d="M82 0L82 5L77 5L77 -2.18557e-07L82 0Z" fill="#06205C"/>
<path d="M96 6L96 11L91 11L91 6L96 6Z" fill="#06205C"/>
<path d="M123 114H139V119H123V114Z" fill="#06205C"/>
<path d="M101.61 124.25V129.09H145.16V136.35C145.157 138.275 144.392 140.12 143.031 141.481C141.67 142.842 139.825 143.607 137.9 143.61H12.1C10.1753 143.607 8.33027 142.842 6.96933 141.481C5.60839 140.12 4.84264 138.275 4.84 136.35V129.09H48.39V124.25H0V136.35C0.00528854 139.557 1.28181 142.632 3.54985 144.9C5.8179 147.168 8.89251 148.445 12.1 148.45H137.9C141.107 148.445 144.182 147.168 146.45 144.9C148.718 142.632 149.995 139.557 150 136.35V124.25H101.61Z" fill="#06205C"/>
<path d="M53.2305 131.51C53.2305 133.434 53.994 135.279 55.3533 136.64C56.7127 138.001 58.5567 138.767 60.4805 138.77H89.4805C90.4372 138.775 91.3856 138.591 92.271 138.229C93.1565 137.866 93.9615 137.332 94.6399 136.658C95.3183 135.983 95.8567 135.181 96.224 134.298C96.5914 133.414 96.7805 132.467 96.7805 131.51V124.25H53.2805L53.2305 131.51ZM58.0705 129.09H91.9405V131.51C91.9326 132.147 91.6741 132.754 91.2211 133.202C90.7682 133.649 90.1571 133.9 89.5205 133.9H60.5205C59.8813 133.9 59.2683 133.646 58.8163 133.194C58.3644 132.742 58.1105 132.129 58.1105 131.49V131.49L58.0705 129.09Z" fill="#06205C"/>
<path d="M6.54019 42.0004C6.54018 40.0784 7.30234 38.2348 8.65953 36.8739C10.0167 35.5129 11.8582 34.7457 13.7802 34.7404H60.5V29.9004H13.7802C10.5762 29.911 7.50669 31.1898 5.24297 33.4573C2.97924 35.7248 1.70547 38.7963 1.7002 42.0004V119.42H6.54019V42.0004Z" fill="#06205C"/>
<path d="M129 34.7397H137.71C139.649 34.7264 141.515 35.4835 142.897 36.8447C144.279 38.206 145.064 40.06 145.08 41.9997V119.42H150V41.9997C149.971 38.7666 148.66 35.677 146.356 33.4086C144.052 31.1403 140.943 29.8784 137.71 29.8997H129V34.7397Z" fill="#06205C"/>
<path d="M64 46.0323C64 62.0409 77.0236 75.0645 93.0323 75.0645C109.041 75.0645 122.065 62.0409 122.065 46.0323C122.065 30.0236 109.041 17 93.0323 17C77.0236 17 64 30.0236 64 46.0323ZM117.226 46.0323C117.226 59.3722 106.372 70.2258 93.0323 70.2258C79.6924 70.2258 68.8387 59.3722 68.8387 46.0323C68.8387 32.6924 79.6924 21.8387 93.0323 21.8387C106.372 21.8387 117.226 32.6924 117.226 46.0323Z" fill="#06205C"/>
<path d="M90.6124 24.2588V29.0975H88.193C82.8564 29.0975 78.5156 33.4382 78.5156 38.7749C78.5156 44.1116 82.8564 48.4523 88.193 48.4523H97.8705C100.539 48.4523 102.709 50.6222 102.709 53.291C102.709 55.9599 100.539 58.1298 97.8705 58.1298H88.193C85.5242 58.1298 83.3543 55.9599 83.3543 53.291H78.5156C78.5156 58.6277 82.8564 62.9685 88.193 62.9685H90.6124V67.8072H95.4511V62.9685H97.8705C103.207 62.9685 107.548 58.6277 107.548 53.291C107.548 47.9544 103.207 43.6136 97.8705 43.6136H88.193C85.5242 43.6136 83.3543 41.4438 83.3543 38.7749C83.3543 36.1061 85.5242 33.9362 88.193 33.9362H97.8705C100.539 33.9362 102.709 36.1061 102.709 38.7749H107.548C107.548 33.4382 103.207 29.0975 97.8705 29.0975H95.4511V24.2588H90.6124Z" fill="#06205C"/>
</svg>
