<svg width="150" height="150" viewBox="0 0 150 150" fill="none" xmlns="http://www.w3.org/2000/svg">
<path d="M101.613 125.806V130.644H145.161V137.902C145.161 141.904 141.905 145.161 137.903 145.161H12.0968C8.09502 145.161 4.83871 141.904 4.83871 137.902V130.644H48.3871V125.806H0V137.902C0 144.573 5.42627 149.999 12.0968 149.999H137.903C144.574 149.999 150 144.573 150 137.902V125.806H101.613Z" fill="#06205C"/>
<path d="M53.2266 133.064C53.2266 137.065 56.4829 140.322 60.4846 140.322H89.5169C93.5186 140.322 96.7749 137.065 96.7749 133.064V125.806H53.2266V133.064ZM58.0653 130.644H91.9362V133.064C91.9362 134.399 90.8497 135.483 89.5169 135.483H60.4846C59.1518 135.483 58.0653 134.399 58.0653 133.064V130.644Z" fill="#06205C"/>
<path d="M9.67758 43.5479C9.67758 39.5462 12.9339 36.2899 16.9356 36.2899H67.7421V31.4512H16.9356C10.2651 31.4512 4.83887 36.8774 4.83887 43.5479V120.967H9.67758V43.5479Z" fill="#06205C"/>
<path d="M82.2588 36.2899H133.065C137.067 36.2899 140.323 39.5462 140.323 43.5479V120.967H145.162V43.5479C145.162 36.8774 139.736 31.4512 133.065 31.4512H82.2588V36.2899Z" fill="#06205C"/>
<path d="M53.2253 41.1289H19.3543C16.6855 41.1289 14.5156 43.2988 14.5156 45.9676V120.968H19.3543V45.9676H53.2253V41.1289Z" fill="#06205C"/>
<path d="M135.484 120.968V45.9676C135.484 43.2988 133.314 41.1289 130.645 41.1289H96.7744V45.9676H130.645V120.968H135.484Z" fill="#06205C"/>
<path d="M60.4846 26.6129H67.7426V21.7742H60.4846C50.6332 21.7742 42.4743 14.3735 41.2799 4.83871H53.2265C63.8988 4.83871 72.5813 13.5213 72.5813 24.1935V43.6714C52.3658 44.9297 36.291 61.73 36.291 82.2567C36.291 103.6 53.6576 120.966 75.0007 120.966C96.3438 120.966 113.71 103.6 113.71 82.2567C113.71 61.7289 97.6356 44.9295 77.42 43.6714V24.1935C77.42 13.5213 86.1026 4.83871 96.7749 4.83871H108.722C107.526 14.3735 99.3682 21.7742 89.5168 21.7742H82.2588V26.6129H89.5168C102.857 26.6129 113.71 15.7593 113.71 2.41935V0H96.7749C87.1893 0 78.9148 5.61539 75.0007 13.7179C71.0866 5.61511 62.8121 0 53.2265 0H36.291V2.41935C36.291 15.7593 47.1447 26.6129 60.4846 26.6129ZM108.872 82.2581C108.872 100.936 93.6784 116.129 75.0007 116.129C56.323 116.129 41.1297 100.936 41.1297 82.2581C41.1297 63.5804 56.323 48.3871 75.0007 48.3871C93.6784 48.3871 108.872 63.5804 108.872 82.2581Z" fill="#06205C"/>
<path d="M72.5802 60.4834V65.3221H70.1608C64.8241 65.3221 60.4834 69.6628 60.4834 74.9995C60.4834 80.3362 64.8241 84.6769 70.1608 84.6769H79.8382C82.5071 84.6769 84.6769 86.8468 84.6769 89.5157C84.6769 92.1845 82.5071 94.3544 79.8382 94.3544H70.1608C67.492 94.3544 65.3221 92.1845 65.3221 89.5157H60.4834C60.4834 94.8523 64.8241 99.1931 70.1608 99.1931H72.5802V104.032H77.4189V99.1931H79.8382C85.1749 99.1931 89.5157 94.8523 89.5157 89.5157C89.5157 84.179 85.1749 79.8382 79.8382 79.8382H70.1608C67.492 79.8382 65.3221 77.6684 65.3221 74.9995C65.3221 72.3307 67.492 70.1608 70.1608 70.1608H79.8382C82.5071 70.1608 84.6769 72.3307 84.6769 74.9995H89.5157C89.5157 69.6628 85.1749 65.3221 79.8382 65.3221H77.4189V60.4834H72.5802Z" fill="#06205C"/>
</svg>
