<svg xmlns="http://www.w3.org/2000/svg" viewBox="0 0 79.76 76.61"><defs><style>.cls-1{fill:#0a2158;fill-rule:evenodd;}.cls-2{fill:#06205c;}</style></defs><g id="Layer_2" data-name="Layer 2"><g id="Layer_1-2" data-name="Layer 1"><path class="cls-1" d="M70.14,30.08l-.22-1.95-2.71-1.69-7.44-4.56L55,25.69l-4.42,1.42v1.5L42.3,30.25l-1.47,27L33.9,50.13l-3-2.41L25.42,47l-2,.51-2.76,5.21-8.06-3.5-1.1-2.92-1.1-3.53-2.2-2.07L2.35,35.73,0,33.68V32.25H21.13V0H39.06V14.09l1.69,1.35L43,14.76l1,1.82,3.2.78h2.93l1,1.9,1.66-1.05,2.58,1.05,1.73-1.05,3.3,1.87,4-1.61,1.24.79,1.43-.79L71.87,21h1.88V30.2Z"/><path class="cls-2" d="M40.83,51.16v6.06h-17a4.87,4.87,0,0,0-3.57,1.35,4.67,4.67,0,0,0-1.1,1.6,4.82,4.82,0,0,0,0,3.8,4.87,4.87,0,0,0,1.1,1.6,4.79,4.79,0,0,0,1.65,1,4.84,4.84,0,0,0,1.92.31l17,0c.25,3.15-1.39,9.61,3.65,9.72H76.11A3.65,3.65,0,0,0,79.76,73V31.76c-.11-5-6.55-3.4-9.72-3.63V25.7H66.26c-1.28-6.65-11.44-6.11-12.06,0-.53.59-2,0-3.07,0-.46,0-.54.74-.67,2.42-3.23.29-9.47-1.43-9.63,3.64ZM67.6,35.4H53V28.12h3.65c-.76-6.44,8.06-6.43,7.3,0h3.65ZM70,37.82V35.4h2.43V69.34H48.13V66.88h5.19l7.35-2.09a2.89,2.89,0,0,0,1.49-1,2.81,2.81,0,0,0-1.49-4.41L53,57.22H48.13V35.4h2.43v2.42ZM31.09,64.49V59.64H51.78v4.85ZM54.21,60c8.11,2.29,8,1.78,0,4.06Zm-11,6.85h2.43v4.88H74.9V33H70V30.55h6.08a1.23,1.23,0,0,1,1.22,1.21V73a1.23,1.23,0,0,1-1.22,1.21H44.48A1.23,1.23,0,0,1,43.26,73ZM23.79,59.64h4.86v4.85H23.79A2.43,2.43,0,0,1,23.79,59.64Zm19.47-2.42V31.76a1.23,1.23,0,0,1,1.22-1.21h6.08V33H45.69V57.22Z"/><path class="cls-2" d="M65.17,33H62.73V30.55h2.44Z"/><path class="cls-2" d="M57.86,33H55.43V30.55h2.43Z"/><path class="cls-2" d="M53.13,55.33H65.3v-9.2L71,40.42l-1.72-1.71-4.51,4.5H53.13Zm2.44-9.69h6.79l-3.14,3.13-1.58-1.56-1.72,1.71,3.3,3.28,3.65-3.64v4.35h-7.3Z"/></g></g></svg>