<svg width="150" height="136" viewBox="0 0 150 136" fill="none" xmlns="http://www.w3.org/2000/svg">
<path d="M125.41 60.49L84.4804 72.61L69.7804 56.05H39.3704V51.34H29.6204V45.25H2.94043V49.42H25.4604V95.84H2.94043V100H29.5804V93.88H39.3404V91.4H50.7204L78.2604 107L132.05 76C134.002 74.8777 135.428 73.0271 136.017 70.8543C136.606 68.6815 136.308 66.3639 135.19 64.41C134.239 62.7519 132.756 61.4632 130.981 60.7519C129.206 60.0406 127.244 59.9483 125.41 60.49V60.49ZM35.2504 89.77H29.5804V55.46H35.2504V89.77ZM130 72.42L78.2404 102.23L51.7804 87.28H39.3704V60.17H67.8904L83.1704 77.32C83.5869 77.7201 83.9179 78.2005 84.1434 78.7321C84.369 79.2638 84.4843 79.8357 84.4824 80.4132C84.4806 80.9907 84.3616 81.5618 84.1327 82.092C83.9038 82.6222 83.5697 83.1005 83.1506 83.4979C82.7316 83.8952 82.2363 84.2035 81.6947 84.404C81.1531 84.6044 80.5765 84.693 79.9997 84.6642C79.4229 84.6354 78.8579 84.4899 78.339 84.2365C77.82 83.9831 77.3578 83.6271 76.9804 83.19L66.5204 72.74L63.6104 75.65L74.0704 86.11C75.6336 87.6861 77.7582 88.5777 79.978 88.5889C82.1978 88.6002 84.3314 87.7302 85.9104 86.17C87.2219 84.8743 88.0683 83.1813 88.3179 81.3547C88.5675 79.528 88.2063 77.6701 87.2904 76.07L126.62 64.44C127.68 63.9896 128.875 63.9777 129.944 64.4069C131.012 64.8362 131.867 65.6716 132.32 66.73C132.545 67.2546 132.664 67.8182 132.67 68.3887C132.676 68.9593 132.57 69.5254 132.357 70.0548C132.145 70.5843 131.83 71.0665 131.43 71.4741C131.031 71.8817 130.555 72.2065 130.03 72.43L130 72.42Z" fill="#06205C"/>
<path d="M101.61 111.25V116.09H145.16V123.35C145.157 125.275 144.392 127.12 143.031 128.481C141.67 129.842 139.825 130.607 137.9 130.61H12.1C10.1753 130.607 8.33027 129.842 6.96933 128.481C5.60839 127.12 4.84264 125.275 4.84 123.35V116.09H48.39V111.25H0V123.35C0.00528854 126.557 1.28181 129.632 3.54985 131.9C5.8179 134.168 8.89251 135.445 12.1 135.45H137.9C141.107 135.445 144.182 134.168 146.45 131.9C148.718 129.632 149.995 126.557 150 123.35V111.25H101.61Z" fill="#06205C"/>
<path d="M53.2305 118.51C53.2305 120.434 53.994 122.279 55.3533 123.64C56.7127 125.001 58.5567 125.767 60.4805 125.77H89.4805C90.4372 125.775 91.3856 125.591 92.271 125.229C93.1565 124.866 93.9615 124.332 94.6399 123.658C95.3183 122.983 95.8567 122.181 96.224 121.298C96.5914 120.414 96.7805 119.467 96.7805 118.51V111.25H53.2805L53.2305 118.51ZM58.0705 116.09H91.9405V118.51C91.9326 119.147 91.6741 119.754 91.2211 120.202C90.7682 120.649 90.1571 120.9 89.5205 120.9H60.5205C59.8813 120.9 59.2683 120.646 58.8163 120.194C58.3644 119.742 58.1105 119.129 58.1105 118.49V118.49L58.0705 116.09Z" fill="#06205C"/>
<path d="M6.54019 29.0004C6.54018 27.0784 7.30234 25.2348 8.65953 23.8739C10.0167 22.5129 11.8582 21.7457 13.7802 21.7404H67.1102V16.9004H13.7802C10.5762 16.911 7.50669 18.1898 5.24297 20.4573C2.97924 22.7248 1.70547 25.7963 1.7002 29.0004V106.42H6.54019V29.0004Z" fill="#06205C"/>
<path d="M123.35 21.7397H137.71C139.649 21.7264 141.515 22.4835 142.897 23.8447C144.279 25.206 145.064 27.06 145.08 28.9997V106.42H150V28.9997C149.971 25.7666 148.66 22.677 146.356 20.4086C144.052 18.1403 140.943 16.8784 137.71 16.8997H123.22L123.35 21.7397Z" fill="#06205C"/>
<path d="M71.0996 24C71.0996 30.3652 73.6282 36.4697 78.129 40.9706C82.6299 45.4714 88.7344 48 95.0996 48C101.465 48 107.569 45.4714 112.07 40.9706C116.571 36.4697 119.1 30.3652 119.1 24C119.1 17.6348 116.571 11.5303 112.07 7.02943C107.569 2.52856 101.465 0 95.0996 0V0C88.7344 0 82.6299 2.52856 78.129 7.02943C73.6282 11.5303 71.0996 17.6348 71.0996 24V24ZM115.04 24C115.04 29.3043 112.932 34.3914 109.182 38.1421C105.431 41.8929 100.344 44 95.0396 44C89.7353 44 84.6482 41.8929 80.8975 38.1421C77.1467 34.3914 75.0396 29.3043 75.0396 24C75.0396 18.6957 77.1467 13.6086 80.8975 9.85786C84.6482 6.10714 89.7353 4 95.0396 4C100.344 4 105.431 6.10714 109.182 9.85786C112.932 13.6086 115.04 18.6957 115.04 24Z" fill="#06205C"/>
<path d="M93.0497 6.10961V10.1096H91.0497C89.9891 10.1083 88.9387 10.3161 87.9584 10.721C86.9782 11.126 86.0873 11.7202 85.3369 12.4697C84.5865 13.2192 83.9912 14.1093 83.585 15.089C83.1788 16.0688 82.9697 17.119 82.9697 18.1796C82.9684 19.2402 83.1762 20.2907 83.5812 21.2709C83.9861 22.2512 84.5803 23.142 85.3298 23.8924C86.0793 24.6429 86.9694 25.2382 87.9492 25.6444C88.9289 26.0505 89.9791 26.2596 91.0397 26.2596H99.1097C100.171 26.2596 101.188 26.681 101.938 27.4312C102.688 28.1813 103.11 29.1987 103.11 30.2596C103.11 31.3205 102.688 32.3379 101.938 33.088C101.188 33.8382 100.171 34.2596 99.1097 34.2596H91.0497C89.9889 34.2596 88.9714 33.8382 88.2213 33.088C87.4712 32.3379 87.0497 31.3205 87.0497 30.2596H83.0497C83.0524 32.4008 83.9048 34.4534 85.4198 35.9666C86.9348 37.4797 88.9885 38.3296 91.1297 38.3296H93.1297V42.3296H97.1297V38.3296H99.1297C101.27 38.3296 103.323 37.4794 104.836 35.966C106.35 34.4525 107.2 32.3999 107.2 30.2596C107.2 28.1184 106.35 26.0647 104.837 24.5497C103.324 23.0347 101.271 22.1823 99.1297 22.1796H91.0697C90.0089 22.1796 88.9915 21.7582 88.2413 21.008C87.4912 20.2579 87.0697 19.2405 87.0697 18.1796C87.0697 17.1187 87.4912 16.1013 88.2413 15.3512C88.9915 14.601 90.0089 14.1796 91.0697 14.1796H99.1397C100.201 14.1796 101.218 14.601 101.968 15.3512C102.718 16.1013 103.14 17.1187 103.14 18.1796H107.14C107.14 16.0384 106.29 13.9847 104.777 12.4697C103.264 10.9547 101.211 10.1023 99.0697 10.0996H97.0697V6.09961L93.0497 6.10961Z" fill="#06205C"/>
</svg>
