<svg width="150" height="150" viewBox="0 0 150 150" fill="none" xmlns="http://www.w3.org/2000/svg">
<path d="M140.322 34.1151V23.1912L117.13 0H48.3871V33.871H12.0968C5.42627 33.871 0 39.2972 0 45.9677V123.387C0 130.058 5.42627 135.484 12.0968 135.484H41.129V145.161H31.4516V150H118.548V145.161H108.871V135.484H137.903C144.574 135.484 150 130.058 150 123.387V45.9677C150 40.1278 145.836 35.2405 140.323 34.1151H140.322ZM134.482 24.1935H116.129V5.83991L134.482 24.1935ZM53.2252 4.83871H111.29V29.0323H135.483V106.452H53.2252V4.83871ZM12.0962 38.7097H48.3865V111.29H140.322V39.1548C143.131 40.1561 145.161 42.8173 145.161 45.968V116.129H4.83816V45.968C4.83816 41.9663 8.09447 38.71 12.0962 38.71V38.7097ZM104.032 145.161H45.9672V135.484H104.032V145.161ZM137.903 130.645H12.0962C8.09447 130.645 4.83816 127.389 4.83816 123.387V120.968H145.161V123.387C145.161 127.389 141.904 130.645 137.903 130.645Z" fill="#06205C"/>
<path d="M43.5487 60.4853C43.5487 51.1471 35.9494 43.5498 26.6132 43.5498C17.277 43.5498 9.67773 51.1471 9.67773 60.4853C9.67773 69.8234 17.277 77.4208 26.6132 77.4208C35.9494 77.4208 43.5487 69.8234 43.5487 60.4853ZM29.0326 55.6466C29.0326 56.9794 27.9482 58.0659 26.6132 58.0659C25.2783 58.0659 24.1939 56.9794 24.1939 55.6466C24.1939 54.3138 25.2783 53.2272 26.6132 53.2272C27.9482 53.2272 29.0326 54.3138 29.0326 55.6466ZM14.5164 60.4853C14.5164 54.3161 19.176 49.2667 25.1519 48.5364C21.8469 49.2136 19.3552 52.1461 19.3552 55.6466C19.3552 59.6483 22.6115 62.9046 26.6132 62.9046C30.615 62.9046 33.8713 59.6483 33.8713 55.6466C33.8713 52.1461 31.3796 49.2136 28.0745 48.5364C34.0505 49.2666 38.71 54.3158 38.71 60.4853C38.71 63.6542 37.4571 66.5218 35.4537 68.6821C33.9513 65.2853 30.5588 62.9046 26.6132 62.9046C22.6676 62.9046 19.2752 65.2851 17.7728 68.6821C15.7692 66.5219 14.5164 63.6542 14.5164 60.4853V60.4853ZM21.8738 71.6099C22.3231 69.4055 24.278 67.7434 26.6132 67.7434C28.9484 67.7434 30.9034 69.4056 31.3527 71.6099C29.8967 72.2331 28.2949 72.582 26.6132 72.582C24.9316 72.582 23.3298 72.2331 21.8738 71.6099Z" fill="#06205C"/>
<path d="M9.67773 94.3544C9.67773 103.691 17.277 111.29 26.6132 111.29C35.9494 111.29 43.5487 103.691 43.5487 94.3544C43.5487 85.0182 35.9494 77.4189 26.6132 77.4189C17.277 77.4189 9.67773 85.0182 9.67773 94.3544ZM21.8738 105.479C22.3231 103.277 24.278 101.612 26.6132 101.612C28.9484 101.612 30.9034 103.277 31.3527 105.479C29.8967 106.102 28.2949 106.451 26.6132 106.451C24.9316 106.451 23.3298 106.102 21.8738 105.479ZM29.0326 89.5157C29.0326 90.8507 27.9482 91.9351 26.6132 91.9351C25.2783 91.9351 24.1939 90.8507 24.1939 89.5157C24.1939 88.1808 25.2783 87.0964 26.6132 87.0964C27.9482 87.0964 29.0326 88.1808 29.0326 89.5157ZM25.1519 82.4056C21.8469 83.0828 19.3552 86.0153 19.3552 89.5157C19.3552 93.5175 22.6115 96.7738 26.6132 96.7738C30.615 96.7738 33.8713 93.5175 33.8713 89.5157C33.8713 86.0153 31.3796 83.0827 28.0745 82.4056C34.0505 83.1357 38.71 88.1849 38.71 94.3544C38.71 97.5234 37.4571 100.391 35.4537 102.551C33.9513 99.1544 30.5622 96.7738 26.6132 96.7738C22.6643 96.7738 19.2752 99.1543 17.7728 102.551C15.7692 100.391 14.5164 97.5234 14.5164 94.3544C14.5164 88.1852 19.176 83.1358 25.1519 82.4056V82.4056Z" fill="#06205C"/>
<path d="M87.0969 19.1468V14.5166H62.9033V38.7101H87.0969V25.0937L95.7601 18.9049L92.9487 14.9659L87.0969 19.1468ZM82.2582 33.8714H67.742V19.3553H82.2582V22.6042L77.6807 25.8724L74.2914 22.4831L70.8709 25.9036L77.159 32.1917L82.2579 28.5486L82.2582 33.8714Z" fill="#06205C"/>
<path d="M87.0969 48.18V43.5498H62.9033V67.7434H87.0969V54.1269L95.7601 47.9381L92.9487 43.9991L87.0969 48.18ZM82.2582 62.9046H67.742V48.3885H82.2582V51.6374L77.6807 54.9056L74.2914 51.5163L70.8709 54.9368L77.159 61.2249L82.2579 57.5818L82.2582 62.9046Z" fill="#06205C"/>
<path d="M92.9507 73.0324L87.0978 77.2123V72.582H62.9043V96.7756H87.0978V83.1592L95.7611 76.9703L92.9507 73.0324ZM82.2591 91.9369H67.743V77.4207H82.2591V80.6696L77.6817 83.9378L74.2924 80.5485L70.8718 83.969L77.16 90.2571L82.2589 86.614L82.2591 91.9369Z" fill="#06205C"/>
<path d="M96.7734 33.8721H125.806V38.7108H96.7734V33.8721Z" fill="#06205C"/>
<path d="M96.7734 62.9043H125.806V67.743H96.7734V62.9043Z" fill="#06205C"/>
<path d="M96.7734 91.9365H125.806V96.7752H96.7734V91.9365Z" fill="#06205C"/>
<path d="M96.7734 82.2588H125.806V87.0975H96.7734V82.2588Z" fill="#06205C"/>
<path d="M96.7734 53.2266H125.806V58.0653H96.7734V53.2266Z" fill="#06205C"/>
<path d="M96.7734 24.1943H106.451V29.033H96.7734V24.1943Z" fill="#06205C"/>
</svg>
