<svg width="150" height="150" viewBox="0 0 150 150" fill="none" xmlns="http://www.w3.org/2000/svg">
<path d="M106.604 77.4194C108.041 77.4194 109.432 77.8403 110.63 78.6387L127.527 89.9032C129.523 91.2315 131.843 91.9355 134.238 91.9355H150V87.0968H134.24C132.803 87.0968 131.41 86.6758 130.212 85.8774L123.387 81.3266V0H31.4516V14.5161H0V150H91.9355V135.484H123.387V115.13C123.54 115.094 123.697 115.081 123.849 115.045L135.104 112.231C137.601 111.607 140.17 111.29 142.742 111.29H150V106.452H142.742C139.776 106.452 136.81 106.817 133.931 107.536L122.676 110.349C116.891 111.794 110.734 111.559 105.082 109.674L101.006 108.315C97.2944 107.078 93.4282 106.452 89.5161 106.452H68.4048C68.4048 102.45 71.6613 99.1936 75.6629 99.1936H102.276C106.277 99.1936 109.534 95.9371 109.534 91.9355C109.534 88.2242 106.723 85.1903 103.125 84.7621L105.111 77.4194H106.604ZM103.548 114.264C107.26 115.502 111.126 116.129 115.038 116.129C116.211 116.129 117.382 116.027 118.548 115.914V130.645H91.9355V122.731C92.7847 121.752 93.4427 120.593 93.796 119.281L95.7774 111.944C97.0234 112.198 98.2597 112.5 99.4718 112.906L103.548 114.264ZM90.929 111.346L89.1266 118.019C88.6573 119.756 87.0726 120.968 85.275 120.968H84.4911C82.2919 120.968 80.504 119.18 80.504 116.981C80.504 116.627 80.55 116.279 80.6419 115.94L81.8976 111.29H89.5161C89.9879 111.29 90.4573 111.327 90.929 111.346ZM76.8847 111.29L75.9702 114.675C75.7669 115.425 75.6653 116.199 75.6653 116.981C75.6653 120.252 77.475 123.08 80.1242 124.604L79.3645 127.638L84.0581 128.811L84.8105 125.806H85.275C85.8992 125.806 86.504 125.719 87.0968 125.594V145.161H4.83871V19.3548H36.2903V4.83871H118.548V78.1016L113.315 74.6129C111.319 73.2847 108.999 72.5807 106.604 72.5807H106.418L116.487 35.325C116.69 34.575 116.792 33.8008 116.792 33.0194C116.792 28.1516 112.831 24.1936 107.966 24.1936H107.182C103.202 24.1936 99.6992 26.8766 98.6613 30.7186L91.9355 55.604V14.5161H41.129V19.3548H87.0968V72.5807H82.0911C79.4589 72.5807 76.979 73.454 74.9056 75H50.8065V79.8387H69.8226L64.9839 84.6774H50.8065V89.5161H60.1476L56.1048 93.5589C54.6774 94.9839 53.8911 96.8807 53.8911 98.9008C53.8911 103.065 57.2782 106.452 61.4444 106.452C62.1895 106.452 62.9081 106.309 63.6048 106.101C63.6024 106.219 63.5685 106.331 63.5685 106.452C63.5685 109.12 65.7387 111.29 68.4073 111.29H76.8847ZM95.521 94.3549H86.475L96.6919 56.5548L104.99 59.3202L95.521 94.3549ZM76.9597 79.5436C78.3121 78.1936 80.1823 77.4194 82.0911 77.4194H86.0395L84.0653 84.721C81.0048 84.8323 78.1355 86.0419 75.9581 88.2194L63.3605 100.817C62.8548 101.323 62.1556 101.613 61.4419 101.613C59.9444 101.613 58.7274 100.396 58.7274 98.9008C58.7274 98.175 59.0105 97.4952 59.5234 96.9823L76.9597 79.5436ZM79.379 91.6403C80.2936 90.7258 81.4573 90.1016 82.6984 89.7774L81.4621 94.3549H76.6669L79.379 91.6403ZM111.815 34.0621L108.852 45.0242L100.553 42.2589L103.331 31.9815C103.802 30.2444 105.385 29.0323 107.182 29.0323H107.966C110.165 29.0323 111.953 30.8202 111.953 33.0194C111.953 33.3726 111.907 33.721 111.815 34.0621ZM99.2903 46.9379L107.589 49.7032L106.253 54.6411L97.9548 51.8758L99.2903 46.9379ZM102.276 89.5161C103.609 89.5161 104.695 90.6024 104.695 91.9355C104.695 93.2686 103.609 94.3549 102.276 94.3549H100.531L101.84 89.5161H102.276Z" fill="#06205C"/>
<path d="M72.581 24.1934H9.67773V48.3869H72.581V24.1934ZM67.7423 43.5482H14.5164V29.0321H67.7423V43.5482Z" fill="#06205C"/>
<path d="M24.1932 33.8701H19.3545V38.7088H24.1932V33.8701Z" fill="#06205C"/>
<path d="M33.8709 33.8701H29.0322V38.7088H33.8709V33.8701Z" fill="#06205C"/>
<path d="M43.5487 33.8701H38.71V38.7088H43.5487V33.8701Z" fill="#06205C"/>
<path d="M53.2254 33.8701H48.3867V38.7088H53.2254V33.8701Z" fill="#06205C"/>
<path d="M62.9032 33.8701H58.0645V38.7088H62.9032V33.8701Z" fill="#06205C"/>
<path d="M38.71 77.4195H33.8713V87.0969H14.5164V67.742H29.0326V62.9033H9.67773V91.9356H38.71V77.4195Z" fill="#06205C"/>
<path d="M46.6768 53.9346L24.1937 76.4176L21.0655 73.2894L17.6445 76.7104L24.1937 83.2596L50.0978 57.3555L46.6768 53.9346Z" fill="#06205C"/>
<path d="M33.8713 128.226H14.5164V108.871H29.0326V104.032H9.67773V133.064H38.71V118.548H33.8713V128.226Z" fill="#06205C"/>
<path d="M21.0655 114.418L17.6445 117.839L24.1937 124.388L50.0978 98.4844L46.6768 95.0635L24.1937 117.547L21.0655 114.418Z" fill="#06205C"/>
<path d="M82.2577 133.063H77.4189V137.902H82.2577V133.063Z" fill="#06205C"/>
<path d="M72.5807 133.063H45.9678V137.902H72.5807V133.063Z" fill="#06205C"/>
<path d="M82.2583 65.3223H50.8066V70.161H82.2583V65.3223Z" fill="#06205C"/>
</svg>
