<svg width="150" height="149" viewBox="0 0 150 149" fill="none" xmlns="http://www.w3.org/2000/svg">
<path d="M146.92 38.2009L96.7742 0L46.6286 38.2037C46.2582 38.4845 45.9266 38.801 45.6177 39.1347C43.6552 37.7565 41.2888 36.9119 38.7097 36.9119C32.8665 36.9119 27.9802 41.0757 26.857 46.5893H19.3548V51.428H7.25806C3.25631 51.428 0 54.6844 0 58.6861V140.944C0 144.946 3.25631 148.202 7.25806 148.202H70.1613C74.163 148.202 77.4194 144.946 77.4194 140.944V128.795L111.29 128.848C116.627 128.848 120.968 124.507 120.968 119.17C120.968 113.833 116.627 109.493 111.29 109.493H77.4194V97.3959H135.484V50.7286L137.373 52.1997C138.742 53.2614 140.446 53.8468 142.178 53.8468C146.492 53.8468 150 50.3386 150 46.0249V44.4286C150 42.0017 148.846 39.6742 146.92 38.201L146.92 38.2009ZM24.1936 51.4275H31.4517V49.0081C31.4517 45.0064 34.708 41.75 38.7097 41.75C42.7115 41.75 45.9678 45.0064 45.9678 49.0081V51.4275H53.2259V65.9436H24.1936V51.4275ZM58.0646 70.7823V65.9436H62.9033V109.492H53.2259L37.9549 113.759C35.5507 114.444 33.871 116.67 33.871 119.169C33.871 121.669 35.5505 123.895 37.9549 124.579L52.5628 128.755L62.9033 128.772V133.686H14.5162V65.9437H19.3549V70.7824L58.0646 70.7823ZM55.6452 124.008V114.331H96.7742V124.008H55.6452ZM50.8065 123.22L39.2779 119.924C38.9442 119.83 38.7098 119.52 38.7098 119.169C38.7098 118.818 38.9442 118.508 39.2812 118.414L50.8067 115.119L50.8065 123.22ZM72.5807 140.944C72.5807 142.279 71.4963 143.363 70.1613 143.363H7.25812C5.92316 143.363 4.83876 142.279 4.83876 140.944V58.6856C4.83876 57.3507 5.92316 56.2663 7.25812 56.2663H19.3549V61.105H9.67747V138.524H67.742V128.779L72.5807 128.786V140.944ZM116.129 119.17C116.129 121.838 113.959 124.008 111.29 124.008H101.613V114.331H111.29C113.959 114.331 116.129 116.501 116.129 119.17ZM67.742 109.492V61.105H58.0646V56.2663H70.1613C71.4963 56.2663 72.5807 57.3507 72.5807 58.6856V109.492H67.742ZM87.0968 92.5566V68.3631H106.452V92.5566H87.0968ZM130.645 92.5566H111.29V63.5243H82.2581V92.5566H77.4194V58.6856C77.4194 54.6839 74.1631 51.4276 70.1613 51.4276H58.0646V50.7309L96.7742 20.6231L130.645 46.967V92.5566ZM145.161 46.0248C145.161 47.6676 143.821 49.0079 142.178 49.0079C141.52 49.0079 140.867 48.7833 140.346 48.3794L96.7731 14.4918L55.5059 46.5904H50.5601C50.2696 45.1723 49.7253 43.8492 48.9854 42.6567C49.1528 42.4342 49.3386 42.2236 49.5589 42.054L96.7737 6.08441L143.986 42.054C144.723 42.6156 145.162 43.5056 145.162 44.4302L145.161 46.0248Z" fill="#06205C"/>
<path d="M113.709 39.333H99.1934V53.8491H113.709V39.333ZM108.871 49.0104H104.032V44.1717H108.871V49.0104Z" fill="#06205C"/>
<path d="M79.8389 53.8491H94.355V39.333H79.8389V53.8491ZM84.6776 44.1717H89.5163V49.0104H84.6776V44.1717Z" fill="#06205C"/>
<path d="M29.0312 56.2686H33.87V61.1073H29.0312V56.2686Z" fill="#06205C"/>
<path d="M43.5479 56.2686H48.3866V61.1073H43.5479V56.2686Z" fill="#06205C"/>
<path d="M19.3555 109.494H43.549V91.14L54.9374 79.7516L51.5168 76.3311L42.5478 85.3001H19.3555V109.494ZM24.1942 90.1388H37.7091L31.4522 96.3957L28.3245 93.2679L24.9039 96.6885L31.4525 103.237L38.7106 95.979V104.655H24.1945L24.1942 90.1388Z" fill="#06205C"/>
</svg>
