<svg width="150" height="151" viewBox="0 0 150 151" fill="none" xmlns="http://www.w3.org/2000/svg">
<path d="M140.323 127.421V51.1144C140.323 44.4038 134.896 38.9443 128.226 38.9443H128.102C128.175 38.1411 128.226 37.333 128.226 36.5103C128.226 28.7652 124.921 21.8015 119.681 16.9067L125.098 11.4569L121.677 8.01522L115.819 13.908C113.685 12.5474 111.356 11.4837 108.871 10.773V4.86804H113.71V0H89.5161V4.86804H94.3548V10.773C91.8702 11.4837 89.5403 12.5474 87.4065 13.908L81.5492 8.01522L78.1282 11.4569L83.5452 16.9067C78.3048 21.8015 75 28.7652 75 36.5103C75 37.333 75.0508 38.1411 75.1234 38.9443H21.7742C15.104 38.9443 9.67742 44.4038 9.67742 51.1144V127.421C4.04758 129.431 0 134.828 0 141.173V143.607C0 147.633 3.25645 150.909 7.25806 150.909H142.742C146.744 150.909 150 147.633 150 143.607V141.173C150 134.828 145.952 129.431 140.323 127.421ZM123.244 34.0763H104.032V14.7477C114.106 15.8747 122.124 23.941 123.244 34.0763ZM99.1936 4.86804H104.032V9.86021C103.234 9.78719 102.431 9.73607 101.613 9.73607C100.795 9.73607 99.9919 9.78719 99.1936 9.86021V4.86804ZM99.1936 14.7477V38.9443H123.244C122.035 49.8803 112.8 58.4164 101.613 58.4164C89.6081 58.4164 79.8387 48.5879 79.8387 36.5103C79.8387 25.2554 88.3234 15.9647 99.1936 14.7477ZM101.613 63.2845C109.858 63.2845 117.24 59.4898 122.127 53.5484H125.806V116.833H24.1935V53.5484H81.0992C85.9863 59.4898 93.3677 63.2845 101.613 63.2845ZM14.5161 51.1144C14.5161 47.0885 17.7726 43.8123 21.7742 43.8123H76.0306C76.5097 45.5113 77.1508 47.1372 77.9371 48.6804H24.1935C21.525 48.6804 19.3548 50.8637 19.3548 53.5484V116.833C19.3548 119.518 21.525 121.701 24.1935 121.701H125.806C128.475 121.701 130.645 119.518 130.645 116.833V53.5484C130.645 50.8637 128.475 48.6804 125.806 48.6804H125.289C126.075 47.1372 126.716 45.5113 127.195 43.8123H128.226C132.227 43.8123 135.484 47.0885 135.484 51.1144V126.569H14.5161V51.1144ZM95.55 131.437C93.6944 134.402 90.4355 136.305 86.7992 136.305H63.2008C59.5645 136.305 56.3056 134.402 54.45 131.437H95.55ZM145.161 143.607C145.161 144.948 144.075 146.041 142.742 146.041H7.25806C5.925 146.041 4.83871 144.948 4.83871 143.607V141.173C4.83871 135.804 9.17903 131.437 14.5161 131.437H49.0863C51.3387 137.242 56.8718 141.173 63.2032 141.173H86.8016C93.1306 141.173 98.6661 137.242 100.919 131.437H135.484C140.821 131.437 145.161 135.804 145.161 141.173V143.607Z" fill="#06205C"/>
<path d="M60.4846 87.624C56.483 87.624 53.2266 90.9002 53.2266 94.9261C53.2266 98.9519 56.483 102.228 60.4846 102.228C64.4862 102.228 67.7427 98.9519 67.7427 94.9261C67.7427 90.9002 64.4862 87.624 60.4846 87.624ZM60.4846 97.3601C59.1516 97.3601 58.0653 96.2672 58.0653 94.9261C58.0653 93.5849 59.1516 92.4921 60.4846 92.4921C61.8177 92.4921 62.904 93.5849 62.904 94.9261C62.904 96.2672 61.8177 97.3601 60.4846 97.3601Z" fill="#06205C"/>
<path d="M45.968 82.7564C49.9696 82.7564 53.2261 79.4803 53.2261 75.4544C53.2261 71.4285 49.9696 68.1523 45.968 68.1523C41.9664 68.1523 38.71 71.4285 38.71 75.4544C38.71 79.4803 41.9664 82.7564 45.968 82.7564ZM45.968 73.0204C47.3011 73.0204 48.3874 74.1133 48.3874 75.4544C48.3874 76.7955 47.3011 77.8884 45.968 77.8884C44.635 77.8884 43.5487 76.7955 43.5487 75.4544C43.5487 74.1133 44.635 73.0204 45.968 73.0204Z" fill="#06205C"/>
<path d="M63.6111 71.299L39.418 95.6387L42.8394 99.0809L67.0325 74.7411L63.6111 71.299Z" fill="#06205C"/>
<path d="M77.4193 58.416H29.0322V111.964H77.4193V58.416ZM72.5806 107.096H33.8709V63.2841H72.5806V107.096Z" fill="#06205C"/>
</svg>
