<svg xmlns="http://www.w3.org/2000/svg" viewBox="0 0 150 118.55"><defs><style>.cls-1{fill:#06205c;}</style></defs><g id="Layer_2" data-name="Layer 2"><g id="Layer_1-2" data-name="Layer 1"><path class="cls-1" d="M121.88,47.21,84.14,58.38,70.54,43.11h-28V38.77h-9V33.15H8.94V37H29.71V79.81H8.94v3.8H33.51V78h9V75.71H53L78.4,90.07,128,61.51a7.83,7.83,0,0,0-6.12-14.3Zm-83.14,27H33.51V42.57h5.23Zm87.37-16L78.38,85.7,54,71.91H42.54v-25h26.3L82.93,62.73a3.93,3.93,0,0,1-5.71,5.41L67.57,58.5l-2.68,2.69,9.65,9.64a7.72,7.72,0,0,0,12.19-9.26L123,50.85a4,4,0,0,1,3.14,7.37Z"/><path class="cls-1" d="M19.94,72.33h6.62v3.8H19.94Z"/><path class="cls-1" d="M101.61,94.35v4.84h43.55v7.26a7.27,7.27,0,0,1-7.26,7.26H12.1a7.27,7.27,0,0,1-7.26-7.26V99.19H48.39V94.35H0v12.1a12.12,12.12,0,0,0,12.1,12.1H137.9a12.12,12.12,0,0,0,12.1-12.1V94.35Z"/><path class="cls-1" d="M53.23,101.61a7.26,7.26,0,0,0,7.25,7.26h29a7.26,7.26,0,0,0,7.25-7.26V94.35H53.23Zm4.84-2.42H91.94v2.42A2.42,2.42,0,0,1,89.52,104h-29a2.41,2.41,0,0,1-2.41-2.42Z"/><path class="cls-1" d="M9.68,12.1a7.26,7.26,0,0,1,7.26-7.26h56.8V0H16.94A12.12,12.12,0,0,0,4.84,12.1V89.52H9.68Z"/><path class="cls-1" d="M115.37,4.84h17.7a7.26,7.26,0,0,1,7.25,7.26V89.52h4.84V12.1A12.11,12.11,0,0,0,133.07,0H115.26Z"/><path class="cls-1" d="M74.54,23.1A21.24,21.24,0,1,0,95.77,1.86,21.26,21.26,0,0,0,74.54,23.1Zm38.93,0A17.7,17.7,0,1,1,95.77,5.4,17.72,17.72,0,0,1,113.47,23.1Z"/><path class="cls-1" d="M94,7.17v3.54H92.24a7.08,7.08,0,1,0,0,14.16h7.07a3.54,3.54,0,0,1,0,7.08H92.24a3.54,3.54,0,0,1-3.54-3.54H85.16a7.09,7.09,0,0,0,7.08,7.08H94V39h3.54V35.49h1.77a7.08,7.08,0,0,0,0-14.16H92.24a3.54,3.54,0,1,1,0-7.08h7.07a3.54,3.54,0,0,1,3.54,3.54h3.54a7.09,7.09,0,0,0-7.08-7.08H97.54V7.17Z"/></g></g></svg>