<svg width="150" height="150" viewBox="0 0 150 150" fill="none" xmlns="http://www.w3.org/2000/svg">
<path d="M140.322 34.1151V23.1912L117.13 0H48.3871V33.871H12.0968C5.42627 33.871 0 39.2972 0 45.9677V123.387C0 130.058 5.42627 135.484 12.0968 135.484H41.129V145.161H31.4516V150H118.548V145.161H108.871V135.484H137.903C144.574 135.484 150 130.058 150 123.387V45.9677C150 40.1278 145.836 35.2405 140.323 34.1151H140.322ZM134.482 24.1935H116.129V5.83991L134.482 24.1935ZM53.2252 4.83871H111.29V29.0323H135.483V106.452H53.2252V4.83871ZM12.0962 38.7097H48.3865V111.29H140.322V39.1548C143.131 40.1561 145.161 42.8173 145.161 45.968V116.129H4.83816V45.968C4.83816 41.9663 8.09447 38.71 12.0962 38.71V38.7097ZM104.032 145.161H45.9672V135.484H104.032V145.161ZM137.903 130.645H12.0962C8.09447 130.645 4.83816 127.389 4.83816 123.387V120.968H145.161V123.387C145.161 127.389 141.904 130.645 137.903 130.645Z" fill="#06205C"/>
<path d="M43.5487 72.4853C43.5487 63.1471 35.9494 55.5498 26.6132 55.5498C17.277 55.5498 9.67773 63.1471 9.67773 72.4853C9.67773 81.8234 17.277 89.4208 26.6132 89.4208C35.9494 89.4208 43.5487 81.8234 43.5487 72.4853ZM29.0326 67.6466C29.0326 68.9794 27.9482 70.0659 26.6132 70.0659C25.2783 70.0659 24.1939 68.9794 24.1939 67.6466C24.1939 66.3138 25.2783 65.2272 26.6132 65.2272C27.9482 65.2272 29.0326 66.3138 29.0326 67.6466ZM14.5164 72.4853C14.5164 66.3161 19.176 61.2667 25.1519 60.5364C21.8469 61.2136 19.3552 64.1461 19.3552 67.6466C19.3552 71.6483 22.6115 74.9046 26.6132 74.9046C30.615 74.9046 33.8713 71.6483 33.8713 67.6466C33.8713 64.1461 31.3796 61.2136 28.0745 60.5364C34.0505 61.2666 38.71 66.3158 38.71 72.4853C38.71 75.6542 37.4571 78.5218 35.4537 80.6821C33.9513 77.2853 30.5588 74.9046 26.6132 74.9046C22.6676 74.9046 19.2752 77.2851 17.7728 80.6821C15.7692 78.5219 14.5164 75.6542 14.5164 72.4853V72.4853ZM21.8738 83.6099C22.3231 81.4055 24.278 79.7434 26.6132 79.7434C28.9484 79.7434 30.9034 81.4056 31.3527 83.6099C29.8967 84.2331 28.2949 84.582 26.6132 84.582C24.9316 84.582 23.3298 84.2331 21.8738 83.6099Z" fill="#06205C"/>
<path d="M87.0969 19.1468V14.5166H62.9033V38.7101H87.0969V25.0937L95.7601 18.9049L92.9487 14.9659L87.0969 19.1468ZM82.2582 33.8714H67.742V19.3553H82.2582V22.6042L77.6807 25.8724L74.2914 22.4831L70.8709 25.9036L77.159 32.1917L82.2579 28.5486L82.2582 33.8714Z" fill="#06205C"/>
<path d="M87.0969 48.18V43.5498H62.9033V67.7434H87.0969V54.1269L95.7601 47.9381L92.9487 43.9991L87.0969 48.18ZM82.2582 62.9046H67.742V48.3885H82.2582V51.6374L77.6807 54.9056L74.2914 51.5163L70.8709 54.9368L77.159 61.2249L82.2579 57.5818L82.2582 62.9046Z" fill="#06205C"/>
<path d="M92.9507 73.0324L87.0978 77.2123V72.582H62.9043V96.7756H87.0978V83.1592L95.7611 76.9703L92.9507 73.0324ZM82.2591 91.9369H67.743V77.4207H82.2591V80.6696L77.6817 83.9378L74.2924 80.5485L70.8718 83.969L77.16 90.2571L82.2589 86.614L82.2591 91.9369Z" fill="#06205C"/>
<path d="M96.7734 83.2588H125.806V88.0975H96.7734V83.2588Z" fill="#06205C"/>
<path d="M96.7734 54.2266H125.806V59.0653H96.7734V54.2266Z" fill="#06205C"/>
<path d="M96.7734 25.1943H106.451V30.033H96.7734V25.1943Z" fill="#06205C"/>
</svg>
